Coordinates
version=1
nRows=29
nColumns=24
inDegrees=yes

Units are S.I. units (second, meters, Newtons, ...)
Angles are in degrees.

endheader
time	pelvis_tilt	pelvis_list	pelvis_rotation	pelvis_tx	pelvis_ty	pelvis_tz	hip_flexion_r	hip_adduction_r	hip_rotation_r	knee_angle_r	ankle_angle_r	subtalar_angle_r	mtp_angle_r	hip_flexion_l	hip_adduction_l	hip_rotation_l	knee_angle_l	ankle_angle_l	subtalar_angle_l	mtp_angle_l	lumbar_extension	lumbar_bending	lumbar_rotation
      4.04500000	     -9.80319910	     -6.77465283	      7.52093686	     -0.23992165	     -0.03926582	      0.63761026	     32.76015457	      2.69862835	     -0.97584302	    -33.64621359	      2.20547439	     -2.33760384	     14.26056647	     11.13751081	     -5.76016957	      4.97276695	    -56.37537213	    -21.33930233	      4.74005265	     25.60332406	      9.81421482	     13.36467317	    -13.12391182
      4.05000000	     -9.78350682	     -6.88024613	      7.32577424	     -0.23262403	     -0.03831285	      0.63819380	     32.16623945	      3.05376493	     -0.79143055	    -33.41891357	      2.50105973	     -2.58200982	     13.99678687	     12.29094276	     -5.83318104	      4.58238748	    -58.04521404	    -20.62264358	      4.58188740	     26.25714979	      9.72329767	     13.53642860	    -12.69305730
      4.05500000	     -9.66422747	     -6.93058649	      7.17973157	     -0.22535158	     -0.03712939	      0.63854575	     31.42891412	      3.29848937	     -0.70925948	    -33.14300831	      2.85751969	     -2.55590061	     13.93859963	     13.31997525	     -5.83684897	      4.22213816	    -59.58922503	    -20.06344355	      4.25495333	     26.70472403	      9.52006935	     13.67199751	    -12.24729135
      4.06000000	     -9.61967240	     -6.97907424	      6.97477646	     -0.21801709	     -0.03594951	      0.63911330	     30.73909137	      3.60862640	     -0.43191501	    -32.81493702	      3.14229321	     -2.73436996	     13.65691677	     14.39452522	     -5.86314977	      3.84411969	    -61.01291309	    -19.52273135	      4.03480305	     27.22285080	      9.40417692	     13.78062659	    -11.78012159
      4.06500000	     -9.51429175	     -6.99748820	      6.82817595	     -0.21073715	     -0.03466285	      0.63953078	     29.96894637	      3.82196701	     -0.32764287	    -32.46114895	      3.47270955	     -2.73671982	     13.56163109	     15.40841915	     -5.85513553	      3.50116596	    -62.33868209	    -19.09938317	      3.75063016	     27.54639193	      9.22573175	     13.85681340	    -11.36597655
      4.07000000	     -9.46978107	     -7.00521969	      6.61771030	     -0.20338996	     -0.03338545	      0.64012094	     29.23010809	      4.08802538	     -0.02374974	    -32.06019221	      3.74420933	     -2.92614979	     13.19780974	     16.44787925	     -5.85228690	      3.13567143	    -63.54560946	    -18.68026874	      3.52495081	     27.82904780	      9.11462124	     13.90802982	    -10.89638336
      4.07500000	     -9.40025216	     -7.01129151	      6.44579029	     -0.19607118	     -0.03204069	      0.64058507	     28.43816029	      4.30848386	      0.20975569	    -31.61367563	      4.03589326	     -2.98953654	     12.86621073	     17.45922005	     -5.83068491	      2.82514601	    -64.65329523	    -18.32314028	      3.26652005	     27.97742829	      8.98491548	     13.95836235	    -10.46514419
      4.08000000	     -9.31665818	     -7.00625620	      6.33123340	     -0.18873466	     -0.03067004	      0.64089121	     27.60190640	      4.46063926	      0.34600052	    -31.11533685	      4.32046906	     -2.96757661	     12.79255045	     18.44272757	     -5.76832891	      2.58716631	    -65.65161723	    -17.98260185	      2.99996016	     28.13735037	      8.86555154	     13.99207299	    -10.12308901
      4.08500000	     -9.27377309	     -7.00226181	      6.10592137	     -0.18144607	     -0.02934371	      0.64146967	     26.80647553	      4.69602023	      0.66582824	    -30.60643463	      4.51753593	     -3.19024030	     12.36049512	     19.45271462	     -5.75705344	      2.25778958	    -66.57146920	    -17.64423865	      2.79265668	     28.16044741	      8.74970165	     14.02495101	     -9.64638068
      4.09000000	     -9.21207759	     -6.99840589	      5.98796520	     -0.17410891	     -0.02798620	      0.64175454	     25.94840653	      4.83984371	      0.86193931	    -30.02918028	      4.77324558	     -3.15092719	     12.25043106	     20.43510853	     -5.68307015	      2.06705037	    -67.37942860	    -17.32763088	      2.57896432	     28.28195784	      8.66093556	     14.05396985	     -9.34722075
      4.09500000	     -9.17157796	     -6.99191533	      5.76237220	     -0.16680880	     -0.02669170	      0.64231560	     25.12137365	      5.05887137	      1.20096945	    -29.46552050	      4.96069305	     -3.38320635	     11.71015757	     21.41727593	     -5.66783947	      1.77932378	    -68.11415874	    -16.94474153	      2.46626105	     28.30759007	      8.55473264	     14.08023497	     -8.87384188
      4.10000000	     -9.11935115	     -6.99629588	      5.62491700	     -0.15952391	     -0.02543405	      0.64263696	     24.26395639	      5.20524975	      1.39620036	    -28.86296249	      5.21292312	     -3.34666852	     11.52534673	     22.39525523	     -5.61498297	      1.59666234	    -68.76407285	    -16.61141372	      2.31638951	     28.43176705	      8.46572911	     14.11457699	     -8.55725837
      4.10500000	     -9.08395062	     -6.99274511	      5.43380515	     -0.15223591	     -0.02419101	      0.64305694	     23.41291766	      5.38034214	      1.70859864	    -28.24000712	      5.36810221	     -3.47754261	     11.14741564	     23.35633254	     -5.56750501	      1.40238414	    -69.31446326	    -16.21366493	      2.24837908	     28.57149419	      8.37760490	     14.14413707	     -8.14041308
      4.11000000	     -9.04778986	     -6.98093901	      5.27403068	     -0.14493707	     -0.02301951	      0.64342420	     22.54901462	      5.51655380	      1.97278578	    -27.59811021	      5.58542674	     -3.52547583	     10.89942617	     24.31410800	     -5.50403251	      1.23708875	    -69.78710548	    -15.87112471	      2.17514064	     28.72606042	      8.30216282	     14.15599871	     -7.83075201
      4.11500000	     -9.01262573	     -6.96117855	      5.08211055	     -0.13768937	     -0.02188396	      0.64383390	     21.69262161	      5.66080204	      2.29586320	    -26.96357368	      5.71537327	     -3.68631166	     10.47902032	     25.24708701	     -5.43687012	      1.07753704	    -70.17150581	    -15.47456011	      2.14375480	     28.91255213	      8.20339515	     14.16484725	     -7.41046696
      4.12000000	     -8.97797867	     -6.93007532	      4.90630617	     -0.13044003	     -0.02082563	      0.64421386	     20.83342763	      5.77333311	      2.59295998	    -26.32666393	      5.88611905	     -3.78889200	     10.08997415	     26.17148915	     -5.35695496	      0.92774987	    -70.47820841	    -15.11972544	      2.07643663	     29.08747809	      8.11092125	     14.15795649	     -7.04376268
      4.12500000	     -8.95834880	     -6.87743790	      4.74742329	     -0.12319905	     -0.01985412	      0.64454150	     19.98773905	      5.84145068	      2.87004698	    -25.68382139	      6.07181610	     -3.85822651	      9.85409899	     27.09999394	     -5.24234102	      0.79686149	    -70.70452910	    -14.80164377	      1.97789843	     29.21912766	      8.03730833	     14.12327397	     -6.75251262
      4.13000000	     -8.92496650	     -6.80539341	      4.53784743	     -0.11602572	     -0.01892136	      0.64497381	     19.14670749	      5.91573637	      3.20757634	    -25.07154617	      6.18401894	     -4.04101540	      9.45112787	     27.98282694	     -5.14161802	      0.62094475	    -70.84413522	    -14.44131402	      1.87707683	     29.31767148	      7.91396156	     14.07297624	     -6.30369891
      4.13500000	     -8.89648341	     -6.71359413	      4.34265259	     -0.10885542	     -0.01807593	      0.64536184	     18.31346888	      5.95165968	      3.53733574	    -24.46833528	      6.35010118	     -4.15224095	      9.09878183	     28.85616877	     -5.01789599	      0.44875796	    -70.90501369	    -14.11470010	      1.72810960	     29.33488736	      7.79852285	     13.99816532	     -5.92539771
      4.14000000	     -8.87204946	     -6.59555163	      4.14470684	     -0.10171242	     -0.01731221	      0.64576183	     17.49660208	      5.95527558	      3.87250347	    -23.88617569	      6.51782563	     -4.26611598	      8.77455666	     29.71341906	     -4.87891263	      0.26169408	    -70.88524448	    -13.79504732	      1.55662886	     29.26829092	      7.67850445	     13.89116885	     -5.54398159
      4.14500000	     -8.84863333	     -6.45572199	      3.93569417	     -0.09459732	     -0.01662448	      0.64617937	     16.69480173	      5.93448553	      4.21870425	    -23.32671188	      6.68197399	     -4.39165346	      8.47847140	     30.54736070	     -4.73276782	      0.05525210	    -70.78224369	    -13.48113096	      1.35854208	     29.12225253	      7.54808001	     13.75905995	     -5.15435341
      4.15000000	     -8.82128239	     -6.29347993	      3.71825816	     -0.08750951	     -0.01601343	      0.64661542	     15.90427214	      5.88910774	      4.58113085	    -22.79413219	      6.84325958	     -4.53242156	      8.18659267	     31.35270384	     -4.58331205	     -0.17385340	    -70.59733324	    -13.16578410	      1.14682101	     28.88619320	      7.40503370	     13.60133042	     -4.75555615
      4.15500000	     -8.75965242	     -6.15043407	      3.47810879	     -0.08045827	     -0.01547323	      0.64706917	     15.09179105	      5.86787711	      4.98036693	    -22.28601702	      7.03719345	     -4.62998498	      7.79399634	     32.10581882	     -4.48649695	     -0.43052973	    -70.35560547	    -12.79225070	      0.93103016	     28.41159780	      7.21209550	     13.47005284	     -4.33966823
      4.16000000	     -8.74214979	     -5.94622015	      3.24917365	     -0.07341535	     -0.01503656	      0.64753331	     14.34472456	      5.77078368	      5.36253084	    -21.81113675	      7.20976977	     -4.78941699	      7.50904128	     32.86926851	     -4.32602299	     -0.69193463	    -70.00746494	    -12.45733428	      0.71064239	     27.99429757	      7.06693374	     13.25805181	     -3.95576072
      4.16500000	     -8.76426961	     -5.72989202	      3.09406672	     -0.06638662	     -0.01473381	      0.64792436	     13.65373107	      5.62993938	      5.64915940	    -21.35055488	      7.37460372	     -4.96538375	      7.38688048	     33.66158279	     -4.11225705	     -0.86015743	    -69.56626019	    -12.17934835	      0.56723823	     27.80530817	      6.98351273	     13.00712956	     -3.69633051
      4.17000000	     -8.65057998	     -5.54728647	      2.77686095	     -0.05944088	     -0.01436744	      0.64849426	     12.83624344	      5.57766895	      6.13757141	    -20.91878859	      7.52319599	     -5.13262757	      7.06124394	     34.26475365	     -4.07146924	     -1.21863661	    -69.07359084	    -11.75824574	      0.32739916	     27.08962170	      6.69239494	     12.83813870	     -3.17329335
      4.17500000	     -8.65404791	     -5.29322793	      2.54842058	     -0.05245608	     -0.01417370	      0.64898851	     12.16400240	      5.40758230	      6.45849554	    -20.52159684	      7.67169155	     -5.32882812	      6.87419852	     34.96098671	     -3.89613658	     -1.48315968	    -68.46173943	    -11.41392960	      0.18297720	     26.63777162	      6.56089093	     12.55211412	     -2.79218177
      4.18000000	     -8.56495009	     -5.11352479	      2.36422645	     -0.04549633	     -0.01403376	      0.64937756	     11.38171017	      5.30675142	      6.82215202	    -20.10747928	      7.88463055	     -5.47017946	      6.53716898	     35.56068290	     -3.78401885	     -1.69087255	    -67.83925729	    -10.84623268	      0.12152493	     25.58441100	      6.33880947	     12.34852973	     -2.52004907
      4.18500000	     -8.57982187	     -4.89714323	      2.10454443	     -0.03860070	     -0.01404290	      0.64987805	     10.74752244	      5.16642478	      7.19803069	    -19.74052728	      8.04800994	     -5.59832846	      6.47765545	     36.22526380	     -3.68088141	     -1.93672378	    -67.07531348	    -10.58335615	     -0.02028775	     25.32994690	      6.20578464	     12.10626977	     -2.13337598
